<svg xmlns="http://www.w3.org/2000/svg" xmlns:xlink="http://www.w3.org/1999/xlink" viewBox="0 0 60 63" version="1.1" x="0px" y="0px"><title>010 - Diamond </title><desc>Created with Sketch.</desc><g stroke="none" stroke-width="1" fill="none" fill-rule="evenodd"><g fill="#000000" fill-rule="nonzero"><path d="M0.028,23.157 C0.0363960241,23.2185913 0.0507979614,23.2792134 0.071,23.338 C0.0959127523,23.4014567 0.127418769,23.4621225 0.165,23.519 C0.181610741,23.5562112 0.200651869,23.5922891 0.222,23.627 L29.222,59.627 C29.237,59.646 29.259,59.652 29.275,59.67 C29.291,59.688 29.315,59.715 29.337,59.735 C29.359,59.755 29.358,59.767 29.373,59.779 L29.383,59.779 L29.393,59.789 C29.401,59.795 29.412,59.798 29.421,59.804 C29.4532424,59.8239509 29.4866337,59.8419823 29.521,59.858 C29.5533404,59.8771794 29.5867256,59.8945397 29.621,59.91 L29.629,59.91 C29.646,59.917 29.661,59.931 29.678,59.937 C29.695,59.943 29.709,59.937 29.723,59.944 C29.737,59.951 29.744,59.957 29.756,59.96 C29.8344769,59.9797518 29.9150758,59.9898267 29.996,59.99 L30.01,59.99 C30.0909242,59.9898267 30.1715231,59.9797518 30.25,59.96 C30.262,59.96 30.271,59.948 30.283,59.944 C30.295,59.94 30.314,59.944 30.328,59.937 C30.342,59.93 30.36,59.917 30.377,59.91 L30.385,59.91 C30.4192744,59.8945397 30.4526596,59.8771794 30.485,59.858 C30.5193663,59.8419823 30.5527576,59.8239509 30.585,59.804 C30.593,59.798 30.605,59.796 30.613,59.789 L30.623,59.779 L30.633,59.779 C30.648,59.767 30.655,59.748 30.669,59.735 C30.683,59.722 30.71,59.692 30.731,59.67 C30.752,59.648 30.769,59.646 30.784,59.627 L59.784,23.627 C59.8232789,23.5729809 59.8567949,23.5149982 59.884,23.454 C59.894,23.435 59.908,23.418 59.917,23.399 C59.960923,23.2940744 59.9869502,23.1825293 59.994,23.069 C59.9954988,23.0403529 59.9954988,23.0116471 59.994,22.983 C59.9926085,22.8939289 59.9791527,22.8054572 59.954,22.72 C59.946303,22.6890738 59.9366161,22.6586772 59.925,22.629 C59.917,22.609 59.916,22.588 59.906,22.568 C59.8631757,22.4796722 59.8075795,22.3981311 59.741,22.326 L47.751,9.339 C47.6878736,9.26756864 47.6147903,9.20559941 47.534,9.155 C47.525,9.155 47.534,9.155 47.534,9.155 L47.529,9.155 C47.3641734,9.05619339 47.176154,9.00271999 46.984,9 L13.016,9 C12.8280701,9.00082795 12.643628,9.05081693 12.481,9.145 C12.4002097,9.19559941 12.3271264,9.25756864 12.264,9.329 L0.266,22.322 C0.241738236,22.3556749 0.220011777,22.3911058 0.201,22.428 C0.16176792,22.4818783 0.127937948,22.5394897 0.1,22.6 C0.075948503,22.6577575 0.0575297168,22.7177023 0.045,22.779 C0.0293454574,22.8405955 0.019634334,22.9035503 0.016,22.967 C0.0140443893,23.0305693 0.0180620225,23.0941818 0.028,23.157 Z M47.16,11.648 L56.716,22 L40.789,22 L47.16,11.648 Z M30,22 L22.909,22 L30,11.757 L37.091,22 L30,22 Z M45.21,11 L38.951,21.172 L31.908,11 L45.21,11 Z M28.092,11 L21.049,21.172 L14.79,11 L28.092,11 Z M12.84,11.648 L19.211,22 L6,22 C5.44771525,22 5,22.4477153 5,23 C5,23.5522847 5.44771525,24 6,24 L20.214,24 L22.708,34.237 C22.8172106,34.6846758 23.2181958,34.9997651 23.679,35 C23.7588256,35.0000094 23.8383743,34.9906113 23.916,34.972 C24.173858,34.9092574 24.3962015,34.7465907 24.5340608,34.5198261 C24.6719202,34.2930615 24.7139883,34.0207981 24.651,33.763 L22.273,24 L37.727,24 L35.349,33.763 C35.2860117,34.0207981 35.3280798,34.2930615 35.4659392,34.5198261 C35.6037985,34.7465907 35.826142,34.9092574 36.084,34.972 C36.1616257,34.9906113 36.2411744,35.0000094 36.321,35 C36.7818042,34.9997651 37.1827894,34.6846758 37.292,34.237 L39.786,24 L56.91,24 L32.1,54.8 L36.315,38.251 C36.4162781,37.9005357 36.3186739,37.5227282 36.0603178,37.2651733 C35.8019617,37.0076183 35.4238529,36.9111878 35.0737048,37.0135539 C34.7235568,37.1159199 34.4569354,37.4008376 34.378,37.757 L30,54.95 L25.619,37.75 C25.5400646,37.3938376 25.2734432,37.1089199 24.9232952,37.0065539 C24.5731471,36.9041878 24.1950383,37.0006183 23.9366822,37.2581733 C23.6783261,37.5157282 23.5807219,37.8935357 23.682,38.244 L27.9,54.8 L2.32,23.044 L12.84,11.648 Z"/><path d="M0.565,54.575 L3.844,56.157 L5.425,59.435 C5.59208644,59.7799903 5.94167741,59.9991101 6.325,59.9991101 C6.70832259,59.9991101 7.05791356,59.7799903 7.225,59.435 L8.807,56.157 L12.085,54.575 C12.4299903,54.4079136 12.6491101,54.0583226 12.6491101,53.675 C12.6491101,53.2916774 12.4299903,52.9420864 12.085,52.775 L8.808,51.192 L7.226,47.915 C7.05891356,47.5700097 6.70932259,47.3508899 6.326,47.3508899 C5.94267741,47.3508899 5.59308644,47.5700097 5.426,47.915 L3.844,51.192 L0.565,52.773 C0.220009671,52.9400864 0.000889894354,53.2896774 0.000889894354,53.673 C0.000889894354,54.0563226 0.220009671,54.4059136 0.565,54.573 L0.565,54.575 Z M5.027,52.842 C5.23080521,52.7441774 5.39517743,52.5798052 5.493,52.376 L6.325,50.651 L7.158,52.376 C7.25621666,52.5795257 7.42047434,52.7437833 7.624,52.842 L9.35,53.674 L7.624,54.507 C7.42047434,54.6052167 7.25621666,54.7694743 7.158,54.973 L6.325,56.7 L5.493,54.975 C5.39478334,54.7714743 5.23052566,54.6072167 5.027,54.509 L3.3,53.674 L5.027,52.842 Z"/><path d="M47.914,7.227 L51.192,8.808 L52.774,12.085 C52.9410864,12.4299903 53.2906774,12.6491101 53.674,12.6491101 C54.0573226,12.6491101 54.4069136,12.4299903 54.574,12.085 L56.155,8.808 L59.434,7.227 C59.7789903,7.05991356 59.9981101,6.71032259 59.9981101,6.327 C59.9981101,5.94367741 59.7789903,5.59408644 59.434,5.427 L56.156,3.843 L54.575,0.565 C54.4079136,0.220009671 54.0583226,0.000889894354 53.675,0.000889894354 C53.2916774,0.000889894354 52.9420864,0.220009671 52.775,0.565 L51.192,3.843 L47.914,5.425 C47.5690097,5.59208644 47.3498899,5.94167741 47.3498899,6.325 C47.3498899,6.70832259 47.5690097,7.05791356 47.914,7.225 L47.914,7.227 Z M52.376,5.493 C52.5795257,5.39478334 52.7437833,5.23052566 52.842,5.027 L53.675,3.3 L54.507,5.025 C54.6052167,5.22852566 54.7694743,5.39278334 54.973,5.491 L56.698,6.324 L54.973,7.156 C54.7691948,7.25382257 54.6048226,7.41819479 54.507,7.622 L53.675,9.347 L52.842,7.622 C52.7437833,7.41847434 52.5795257,7.25421666 52.376,7.156 L50.65,6.326 L52.376,5.493 Z"/><path d="M52.808,49.192 L51.226,45.915 C51.0589136,45.5700097 50.7093226,45.3508899 50.326,45.3508899 C49.9426774,45.3508899 49.5930864,45.5700097 49.426,45.915 L47.845,49.192 L44.566,50.773 C44.2210097,50.9400864 44.0018899,51.2896774 44.0018899,51.673 C44.0018899,52.0563226 44.2210097,52.4059136 44.566,52.573 L47.845,54.155 L49.426,57.433 C49.5930864,57.7779903 49.9426774,57.9971101 50.326,57.9971101 C50.7093226,57.9971101 51.0589136,57.7779903 51.226,57.433 L52.808,54.155 L56.086,52.573 C56.4309903,52.4059136 56.6501101,52.0563226 56.6501101,51.673 C56.6501101,51.2896774 56.4309903,50.9400864 56.086,50.773 L52.808,49.192 Z M51.624,52.507 C51.4204743,52.6052167 51.2562167,52.7694743 51.158,52.973 L50.325,54.7 L49.493,52.975 C49.3947833,52.7714743 49.2305257,52.6072167 49.027,52.509 L47.3,51.674 L49.025,50.842 C49.2288052,50.7441774 49.3931774,50.5798052 49.491,50.376 L50.323,48.651 L51.156,50.376 C51.2542167,50.5795257 51.4184743,50.7437833 51.622,50.842 L53.348,51.674 L51.624,52.507 Z"/></g></g> </svg>