<svg xmlns="http://www.w3.org/2000/svg" xmlns:xlink="http://www.w3.org/1999/xlink" viewBox="0 0 54 63" version="1.1" x="0px" y="0px"><desc>Created with Sketch.</desc><g stroke="none" stroke-width="1" fill="none" fill-rule="evenodd"><g transform="translate(-1.000000, 0.000000)" fill="#000000" fill-rule="nonzero"><path d="M54.974,8.131 C54.9856385,8.08797609 54.9943254,8.0442076 55,8 L55,3 C55,1.34314575 53.6568542,1.01453063e-16 52,0 L4,0 C2.34314575,-1.01453063e-16 1,1.34314575 1,3 L1,8 C1.00591263,8.04490452 1.0149343,8.0893446 1.027,8.133 C1.02680981,8.17819185 1.03015333,8.2233294 1.037,8.268 L5.948,25.949 L1.066,38.641 C1.04976545,38.7025498 1.03938594,38.7654965 1.035,38.829 C1.0176889,38.8846976 1.00596444,38.94198 1,39 L1,57.256 C0.880783448,58.041423 1.08899249,58.8413651 1.576,59.469 C1.95781304,59.8337111 2.47261388,60.0256769 3,60 L52,60 C53.6568542,60 55,58.6568542 55,57 L55,39 C54.9939376,38.9410122 54.982217,38.8827441 54.965,38.826 C54.9606057,38.763484 54.9502249,38.7015336 54.934,38.641 L50.052,25.95 L54.964,8.268 C54.9708185,8.22265477 54.9741616,8.17685473 54.974,8.131 Z M48.036,25.731 C48.031345,25.7691691 48.0286748,25.8075541 48.028,25.846 C48.0158153,25.9119266 48.0111188,25.9790188 48.014,26.046 C48.0178357,26.1136528 48.0288987,26.180701 48.047,26.246 C48.0513841,26.283638 48.057726,26.321022 48.066,26.358 L52.544,38 L3.456,38 L7.687,27 L17.281,27 C15.821116,28.7288817 14.8065967,30.7888194 14.326,33 L11,33 C10.4477153,33 10,33.4477153 10,34 C10,34.5522847 10.4477153,35 11,35 L24,35 C24.5522847,35 25,34.5522847 25,34 C25,33.4477153 24.5522847,33 24,33 L20.587,33 C21.8115086,29.982181 24.7432143,28.0078948 28,28.0078948 C31.2567857,28.0078948 34.1884914,29.982181 35.413,33 L32,33 C31.4477153,33 31,33.4477153 31,34 C31,34.5522847 31.4477153,35 32,35 L45,35 C45.5522847,35 46,34.5522847 46,34 C46,33.4477153 45.5522847,33 45,33 L41.674,33 C41.1938281,30.7886711 40.1792604,28.7286353 38.719,27 L45,27 C45.5522847,27 46,26.5522847 46,26 C46,25.4477153 45.5522847,25 45,25 L36.643,25 C34.7819098,23.5247064 32.5704333,22.5566041 30.224,22.19 L34.707,17.707 C35.0973819,17.3165001 35.0973819,16.6834999 34.707,16.293 L30.707,12.293 C30.5195073,12.1054506 30.2651948,12.0000566 30,12 L26,12 C25.7348052,12.0000566 25.4804927,12.1054506 25.293,12.293 L21.293,16.293 C20.9026181,16.6834999 20.9026181,17.3165001 21.293,17.707 L25.776,22.19 C23.4295795,22.5566482 21.2181139,23.5247458 19.357,25 L7.76,25 L3.315,9 L52.684,9 L48.036,25.731 Z M28,16 L24.414,16 L26.414,14 L29.586,14 L32.586,17 L28,21.586 L24.414,18 L28,18 C28.5522847,18 29,17.5522847 29,17 C29,16.4477153 28.5522847,16 28,16 Z M28,24 C33.4719785,23.9987689 38.2510585,27.7012498 39.617,33 L37.54,33 C36.2304674,28.833 32.3679246,25.998066 28,25.998066 C23.6320754,25.998066 19.7695326,28.833 18.46,33 L16.383,33 C17.7508133,27.7024816 22.5287466,24.0008891 28,24 Z M3,3 C3,2.44771525 3.44771525,2 4,2 L52,2 C52.5522847,2 53,2.44771525 53,3 L53,7 L3,7 L3,3 Z M53,57 C53,57.5522847 52.5522847,58 52,58 L3.017,58 C2.99887048,57.7577846 2.99319634,57.5147977 3,57.272 L3,40 L53,40 L53,57 Z"/></g></g> </svg>