<svg xmlns="http://www.w3.org/2000/svg" xmlns:xlink="http://www.w3.org/1999/xlink" viewBox="0 0 47 63" version="1.1" x="0px" y="0px"><title>026 - Bracelet </title><desc>Created with Sketch.</desc><g stroke="none" stroke-width="1" fill="none" fill-rule="evenodd"><g fill="#000000" fill-rule="nonzero"><path d="M14.669,4.294 C9.241,9.748 6,19.358 6,30 C6,40.642 9.241,50.252 14.669,55.706 C14.9212295,55.9593013 15.2894338,56.0587985 15.6349139,55.967012 C15.9803941,55.8752255 16.2506633,55.6060998 16.3439139,55.261012 C16.4371645,54.9159242 16.3392295,54.5473013 16.087,54.294 C11.1,49.283 8,39.974 8,30 C8,20.026 11.1,10.717 16.087,5.706 C16.476913,5.31443011 16.4755698,4.68091305 16.084,4.29100003 C15.6924301,3.90108701 15.058913,3.90243014 14.669,4.294 Z"/><path d="M24.005,4.087 C28.467,7.312 31.912,14 33.277,22.166 C33.4308021,23.1285736 34.2592244,23.8380452 35.234,23.842 C35.278,23.842 35.323,23.842 35.369,23.842 L45.136,23.187 C45.7059662,23.1479975 46.2320457,22.8671111 46.5815445,22.4151894 C46.9310434,21.9632677 47.070595,21.3834556 46.965,20.822 C44.617,8.4 37.815,0.057 30.024,0.005 C30.016,0.005 30.009,0.005 30,0.005 L18,0.005 C8.075,-1.17700988e-15 0,13.458 0,30 C0,46.542 8.075,60 18,60 L30,60 C30.009,60 30.016,59.995 30.024,59.995 C37.815,59.943 44.617,51.595 46.965,39.183 C47.070595,38.6215444 46.9310434,38.0417323 46.5815445,37.5898106 C46.2320457,37.1378889 45.7059662,36.8570025 45.136,36.818 L35.369,36.163 C34.339035,36.0776116 33.4213363,36.8106301 33.277,37.834 C31.912,46.006 28.467,52.688 24.005,55.913 C18,51.618 14,41.343 14,30 C14,18.657 18,8.381 24.005,4.087 Z M45,21.187 L35.254,21.836 C33.872,13.562 30.408,6.661 25.854,2.972 C26.2779968,2.77072263 26.7149703,2.59800449 27.162,2.455 C27.223,2.436 27.283,2.42 27.344,2.402 C27.7184343,2.2899566 28.0995121,2.20145036 28.485,2.137 C28.551,2.125 28.617,2.111 28.685,2.102 C29.1153849,2.03762579 29.549833,2.0042067 29.985,2.002 C36.8,2.021 42.831,9.726 45,21.187 Z M35.234,38.158 L45,38.813 C42.831,50.275 36.8,57.979 29.977,58 C29.541833,57.9977933 29.1073849,57.9643742 28.677,57.9 C28.611,57.891 28.545,57.877 28.477,57.865 C28.0915121,57.8005496 27.7104343,57.7120434 27.336,57.6 C27.275,57.582 27.215,57.566 27.154,57.547 C26.7069703,57.4039955 26.2699968,57.2312774 25.846,57.03 C30.4,53.339 33.867,46.437 35.234,38.158 Z M12,30 C12,42.521 16.5,53.5 23.452,57.976 L23.48,57.994 L18,57.994 C9.178,58 2,45.439 2,30 C2,14.561 9.178,2 18,2 L23.488,2 L23.466,2.015 L23.457,2.015 C16.5,6.5 12,17.479 12,30 Z"/></g></g> </svg>