<svg xmlns="http://www.w3.org/2000/svg" xmlns:xlink="http://www.w3.org/1999/xlink" viewBox="0 0 58  63" version="1.1" x="0px" y="0px"><desc>Created with Sketch.</desc><g stroke="none" stroke-width="1" fill="none" fill-rule="evenodd"><g fill="#000000" fill-rule="nonzero"><path d="M27.1,59.939 C27.7453333,59.9796667 28.3873333,60.0003333 29.026,60.001 C36.3886648,60.0193496 43.4769829,57.208366 48.826,52.149 C57.0486449,44.4507923 60.0673984,32.6863259 56.5673239,21.9800769 C53.0672494,11.2738278 43.6821208,3.56442422 32.5,2.21 C31.3567676,2.07336863 30.2095918,2.43138355 29.347,3.194 C28.8070368,3.6800619 28.4103785,4.30461715 28.2,5 L24,5 L24,3.5 C24,1.56700338 22.4329966,1.18361906e-16 20.5,0 C18.5670034,-1.18361906e-16 17,1.56700338 17,3.5 C17.0026152,4.0199307 17.1222388,4.53260338 17.35,5 L13,5 C12.4477153,5 12,5.44771525 12,6 C12,6.55228475 12.4477153,7 13,7 L17.35,7 C17.1222388,7.46739662 17.0026152,7.9800693 17,8.5 C17,10.4329966 18.5670034,12 20.5,12 C22.4329966,12 24,10.4329966 24,8.5 L24,7 L28.089,7 C28.4322249,8.6728276 29.8050622,9.93981435 31.5,10.148 C40.9977067,11.2727256 48.5394464,18.6661918 49.852514,28.1396966 C51.1655817,37.6132014 45.9190503,46.7791758 37.0852951,50.4447193 C28.2515399,54.1102628 18.0568964,51.3515632 12.2770484,43.7315372 C6.49720046,36.1115111 6.58881967,25.5506027 12.5,18.032 C13.7417208,16.4432187 13.6013387,14.177357 12.173,12.754 C11.3586917,11.9462625 10.2402082,11.5214713 9.095,11.585 C7.96478285,11.6505649 6.91660132,12.1964927 6.215,13.085 C-0.442072659,21.5400391 -1.86692521,32.9872836 2.51431179,42.8162747 C6.89554879,52.6452657 16.3616207,59.2379203 27.1,59.939 Z M19,3.5 C19,2.67157288 19.6715729,2 20.5,2 C21.3284271,2 22,2.67157288 22,3.5 L22,5 L20.5,5 C19.6715729,5 19,4.32842712 19,3.5 Z M22,8.5 C22,9.32842712 21.3284271,10 20.5,10 C19.6715729,10 19,9.32842712 19,8.5 C19,7.67157288 19.6715729,7 20.5,7 L22,7 L22,8.5 Z M7.781,14.322 C8.12659923,13.8797674 8.64742687,13.6096816 9.208,13.582 C9.247,13.582 9.287,13.582 9.327,13.582 C9.8626651,13.5821887 10.3763219,13.7951332 10.755,14.174 C11.4673545,14.8807447 11.5394869,16.0082419 10.923,16.8 C4.47033991,25.0253425 4.37942555,36.5685307 10.7017273,44.894489 C17.024029,53.2204473 28.1676183,56.232735 37.823649,52.2259717 C47.4796797,48.2192083 53.2168045,38.2022798 51.7870001,27.846183 C50.3571958,17.4900861 42.120481,9.40244207 31.74,8.162 C30.9638336,8.06220323 30.3177935,7.51762053 30.0881091,6.76953043 C29.8584248,6.02144033 30.0875616,5.20815413 30.674,4.69 C31.1090465,4.30805495 31.686352,4.12980687 32.261,4.2 C44.4613378,5.67278518 54.1319503,15.1914786 55.7977155,27.3669689 C57.4634807,39.5424593 50.7049474,51.3088732 39.3485323,56.0045281 C27.9921173,60.7001831 14.8974449,57.1426804 7.47820574,47.3461387 C0.0589665522,37.5495971 0.183376686,23.9808539 7.781,14.322 Z"/></g></g> </svg>