<svg xmlns="http://www.w3.org/2000/svg" xmlns:xlink="http://www.w3.org/1999/xlink" viewBox="0 0 46  63" version="1.1" x="0px" y="0px"><title>038 - Ring </title><desc>Created with Sketch.</desc><g stroke="none" stroke-width="1" fill="none" fill-rule="evenodd"><g fill="#000000" fill-rule="nonzero"><path d="M45.569,32.612 C45.569,32.587 45.569,32.561 45.56,32.536 C44.7847419,29.6911173 43.6665408,26.951021 42.23,24.376 C42.224,24.364 42.216,24.352 42.209,24.34 L42.2,24.325 C38.8016351,18.3593105 34.742766,12.7949699 30.1,7.737 L31.787,5.628 C32.0717682,5.26984742 32.0771222,4.76410094 31.8,4.4 L28.8,0.4 C28.6111456,0.148194157 28.3147573,2.25575848e-15 28,0 L18,0 C17.6852427,9.17489763e-17 17.3888544,0.148194157 17.2,0.4 L14.2,4.4 C14.1743244,4.44152757 14.1519233,4.48499242 14.133,4.53 C14.1094405,4.56894822 14.0883975,4.60936413 14.07,4.651 C14.0347308,4.74733053 14.014494,4.84851442 14.01,4.951 C14.01,4.968 14,4.982 14,5 L14,5.008 C14.0016305,5.12936909 14.0257023,5.24938903 14.071,5.362 C14.0884335,5.39904635 14.1084842,5.43480354 14.131,5.469 C14.1549304,5.52347384 14.183713,5.57568429 14.217,5.625 L15.904,7.734 C11.2604868,12.7908448 7.20031292,18.3537929 3.8,24.318 L3.8,24.323 C3.79,24.34 3.78,24.356 3.772,24.372 C2.33545918,26.947021 1.21725813,29.6871173 0.442,32.532 C0.442,32.55 0.442,32.57 0.436,32.589 C0.43290608,32.5961708 0.430234839,32.6035168 0.428,32.611 C0.142927865,34.0565981 -0.000417889043,35.5265619 -2.33146835e-15,37 C1.22124533e-15,49.7025492 10.2974508,60 23,60 C35.7025492,60 46,49.7025492 46,37 C46.0010592,35.5395441 45.8607382,34.0824152 45.581,32.649 C45.579,32.636 45.571,32.625 45.569,32.612 Z M18.5,2 L27.5,2 L29.735,4.98 L23,13.4 L17.08,6 L26,6 C26.5522847,6 27,5.55228475 27,5 C27,4.44771525 26.5522847,4 26,4 L17,4 L18.5,2 Z M6.528,32.788 L6.597,32.56 C6.96694064,31.393402 7.41529543,30.2531376 7.939,29.147 L7.947,29.13 L7.956,29.114 C10.8825092,23.5118235 16.6794907,19.9998035 23,19.9998035 C29.3205093,19.9998035 35.1174908,23.5118235 38.044,29.114 L38.049,29.123 L38.063,29.154 C38.5853303,30.2556693 39.0320304,31.3916306 39.4,32.554 L39.473,32.795 C39.8256931,34.1687578 40.002772,35.5816928 40,37 C40,46.3888407 32.3888407,54 23,54 C13.6111593,54 6,46.3888407 6,37 C5.9970595,35.579314 6.17447763,34.1640012 6.528,32.788 Z M23,18 C19.3238025,17.9988714 15.7269094,19.0688003 12.649,21.079 C13.495,19.85 14.408,18.587 15.403,17.286 C20.3225461,15.5713722 25.6774539,15.5713722 30.597,17.286 C31.597,18.586 32.505,19.85 33.351,21.079 C30.2730906,19.0688003 26.6761975,17.9988714 23,18 Z M20.987,14.084 C19.8199257,14.176861 18.660976,14.3529759 17.519,14.611 C18.157,13.828 18.819,13.034 19.505,12.233 L20.987,14.084 Z M25.013,14.084 L26.493,12.235 C27.177,13.035 27.844,13.828 28.482,14.611 C27.339595,14.3534616 26.1803476,14.1773523 25.013,14.084 Z M23,58 C11.407503,57.9867741 2.01322591,48.592497 2,37 C1.99903029,35.6521154 2.1299879,34.3073716 2.391,32.985 C3.12401167,30.3189642 4.17594319,27.7510828 5.524,25.337 C5.536,25.317 5.547,25.296 5.558,25.276 C8.82685179,19.5431233 12.7231325,14.1915648 17.175,9.32 L18.233,10.642 C16.65,12.488 15.169,14.303 13.833,16.042 C10.8244892,19.8377344 8.23855944,23.9500065 6.121,28.306 C5.55640995,29.4993735 5.07395479,30.7299015 4.677,31.989 L4.647,32.089 C4.625,32.163 4.604,32.232 4.589,32.289 C4.19361051,33.827988 3.99568718,35.4110386 4,37 C4,47.4934102 12.5065898,56 23,56 C33.4934102,56 42,47.4934102 42,37 C42.0035133,35.4119502 41.8049181,33.8299088 41.409,32.292 C41.393,32.228 41.372,32.159 41.35,32.085 L41.32,31.985 L41.315,31.971 C40.9202064,30.7194089 40.4404241,29.4962315 39.879,28.31 C37.7610082,23.9513988 35.174052,19.8367468 32.164,16.039 C30.832,14.299 29.352,12.484 27.764,10.639 L28.825,9.32 C33.2765182,14.1916158 37.172462,19.5431723 40.441,25.276 C40.452,25.296 40.463,25.317 40.475,25.337 C41.819023,27.7451666 42.8695174,30.3057676 43.604,32.964 L43.604,32.971 L43.604,32.985 C43.8666906,34.3072061 43.999323,35.6519514 44,37 C43.9867741,48.592497 34.592497,57.9867741 23,58 Z"/></g></g> </svg>