<svg xmlns="http://www.w3.org/2000/svg" xmlns:xlink="http://www.w3.org/1999/xlink" viewBox="0 0 60  63" version="1.1" x="0px" y="0px"><desc>Created with Sketch.</desc><g stroke="none" stroke-width="1" fill="none" fill-rule="evenodd"><g fill="#000000" fill-rule="nonzero"><path d="M42.483,49.33 C42.8009224,49.5220195 43.1990776,49.5220195 43.517,49.33 C47.5,46.922 54.6,42.083 57.35,36.748 C60.936,30.248 60.85,23.624 57.15,20.264 C55.0382417,18.424637 52.2071887,17.6403985 49.45,18.131 C49.432,18.131 49.414,18.14 49.395,18.143 C48.7110825,16.6209931 47.5075277,15.3922682 46,14.677 L46,2 C46,0.8954305 45.1045695,6.76353751e-17 44,0 L42,0 C40.8954305,-6.76353751e-17 40,0.8954305 40,2 L40,14.677 C38.4958472,15.3939949 37.295681,16.622517 36.614,18.143 C36.595,18.143 36.577,18.134 36.559,18.131 C33.8017555,17.6392108 30.970195,18.4235898 28.859,20.264 C26.436,22.464 25.572,26.055 26.259,30.087 C24.5191397,28.4326751 22.2026632,27.5221567 19.802,27.549 C17.0355612,27.7121295 14.4953244,29.1304928 12.905,31.4 C11.3943051,33.5496978 10.8029859,36.2129736 11.262,38.8 C8.67789197,38.340916 6.01736435,38.930385 3.869,40.438 C1.59828002,42.0258886 0.177407522,44.5641605 0.011,47.33 C-0.209,52.302 4.422,57.047 11.505,59.13 C13.599232,59.7473 15.7761843,60.0377177 17.959,59.991 C22.0547653,59.9053824 26.1283731,59.3654097 30.105,58.381 C30.4706982,58.2932278 30.7562278,58.0076982 30.844,57.642 C31.782,53.734 33.061,46.878 32.157,41.419 C35.264745,44.4658043 38.7323211,47.1223988 42.483,49.33 Z M42,2 L44,2 L44,15 C44,15.5522847 43.5522847,16 43,16 C42.4477153,16 42,15.5522847 42,15 L42,2 Z M40.51,16.671 C41.0672852,17.5002884 42.0008574,17.9977098 43,17.9977098 C43.9991426,17.9977098 44.9327148,17.5002884 45.49,16.671 C46.3173033,17.1486511 46.9910403,17.852571 47.432,18.7 C45.6569497,19.4301364 44.1217023,20.6425384 43,22.2 C41.8782977,20.6425384 40.3430503,19.4301364 38.568,18.7 C39.0089597,17.852571 39.6826967,17.1486511 40.51,16.671 Z M30.2,21.746 C31.5266827,20.5998549 33.2269209,19.9788056 34.98,20 C35.3983747,19.9989344 35.8161244,20.0323811 36.229,20.1 C38.7790482,20.5794514 40.9602333,22.2194068 42.129,24.536 C42.3208164,24.8337909 42.6507784,25.0137412 43.005,25.0137412 C43.3592216,25.0137412 43.6891836,24.8337909 43.881,24.536 C45.0497667,22.2194068 47.2309518,20.5794514 49.781,20.1 C51.9322549,19.7267854 54.1380383,20.3299951 55.8,21.746 C58.808,24.471 58.726,30.111 55.583,35.807 C53.093,40.644 46.311,45.257 43,47.3 C39.688,45.254 32.905,40.64 30.4,35.78 C27.272,30.111 27.19,24.471 30.2,21.746 Z M29.041,56.576 C25.275,57.441 17.287,58.91 12.099,57.219 C5.887,55.393 1.833,51.454 2.011,47.419 C2.1636949,45.2720581 3.27371711,43.3075795 5.034,42.069 C6.34881063,41.1394225 7.9238891,40.6493981 9.534,40.669 C10.4722338,40.6743341 11.4048082,40.8147759 12.303,41.086 C12.6542406,41.1895701 13.0339997,41.0928737 13.2929367,40.8339367 C13.5518737,40.5749997 13.6485701,40.1952406 13.545,39.844 C12.7178005,37.3974165 13.0841913,34.7046291 14.535,32.568 C15.7736461,30.8105422 17.7363245,29.702543 19.881,29.55 C23.916,29.39 27.858,33.434 29.692,39.666 C31.37,44.812 29.9,52.808 29.039,56.576 L29.041,56.576 Z"/><path d="M32.193,34.891 C32.7289108,35.8855461 33.3804248,36.8133073 34.134,37.655 C34.5004649,38.0520018 35.1160049,38.0861315 35.5241133,37.7320772 C35.9322217,37.3780228 35.9853074,36.7638272 35.644,36.345 C34.9921725,35.618821 34.4282766,34.8182903 33.964,33.96 L33.904,33.849 C31.35,29.222 31.77,25.719 32.884,24.71 C33.4728984,24.2351314 34.2106704,23.9836584 34.967,24 C35.5213573,24.0005805 36.0683805,24.1267377 36.567,24.369 C36.888539,24.5253037 37.2690404,24.4981952 37.5651729,24.2978861 C37.8613053,24.097577 38.0280794,23.7544989 38.0026729,23.3978861 C37.9772663,23.0412733 37.763539,22.7253037 37.442,22.569 C36.6705406,22.1949033 35.8243784,22.0003715 34.967,22 C33.7143622,21.9832853 32.4977963,22.4193457 31.541,23.228 C29.684,24.91 29.083,29.254 32.147,34.807 L32.193,34.891 Z"/><path d="M43,44.747 C43.195181,44.7467558 43.3860239,44.6893986 43.549,44.582 C47.0196068,42.4372054 50.1175331,39.7412125 52.721,36.6 C53.0523708,36.1581722 52.9628278,35.5313708 52.521,35.2 C52.0791722,34.8686292 51.4523708,34.9581722 51.121,35.4 C48.6564417,38.355633 45.7287526,40.8919054 42.452,42.91 C42.0816471,43.1521241 41.9144441,43.6088523 42.0409322,44.0328643 C42.1674202,44.4568762 42.5575238,44.7473529 43,44.747 Z"/><path d="M16.181,53.948 C15.2069932,53.8949806 14.242652,53.7271523 13.308,53.448 L13.187,53.412 C8.108,51.948 5.929,49.174 6,47.673 C6.08124649,46.9208788 6.42632603,46.2218625 6.974,45.7 C7.36536115,45.3100221 7.83986907,45.0136256 8.362,44.833 C8.88473748,44.6529551 9.16254476,44.0832375 8.98249994,43.5605 C8.80245512,43.0377625 8.2327375,42.7599552 7.71,42.94 C6.9013419,43.2200468 6.1663863,43.6791376 5.56,44.283 C4.66190175,45.1570959 4.10969747,46.3261355 4.005,47.575 C3.881,50.075 6.528,53.575 12.621,55.332 L12.715,55.36 C13.7965295,55.6845011 14.9125863,55.8801887 16.04,55.943 L16.111,55.943 C16.6632847,55.9623299 17.12667,55.5302847 17.1459999,54.978 C17.1653299,54.4257153 16.7332847,53.96233 16.181,53.943 L16.181,53.948 Z"/><path d="M27.3,41.206 C26.7536032,41.2848505 26.3744684,41.7915573 26.453,42.338 C26.7992286,46.170594 26.5223084,50.0339672 25.633,53.778 C25.5211624,54.3189629 25.8690371,54.8481623 26.41,54.9599999 C26.9509629,55.0718376 27.4801623,54.7239629 27.592,54.183 C28.5286485,50.21174 28.8123613,46.1144551 28.432,42.052 C28.3526563,41.5060086 27.8461043,41.1274371 27.3,41.206 Z"/></g></g> </svg>