<svg xmlns="http://www.w3.org/2000/svg" xmlns:xlink="http://www.w3.org/1999/xlink" viewBox="0 0 60 63" version="1.1" x="0px" y="0px"><title>021 - Pearl Necklace </title><desc>Created with Sketch.</desc><g stroke="none" stroke-width="1" fill="none" fill-rule="evenodd"><g transform="translate(0.000000, -1.000000)" fill="#000000" fill-rule="nonzero"><path d="M56.726,26.676 C58.0687779,24.9626045 58.3749777,22.6550925 57.5255264,20.6507948 C56.676075,18.6464972 54.8050332,17.2617327 52.64,17.035 C53.5156101,14.6348389 52.7719201,11.9434877 50.788185,10.3334377 C48.8044499,8.72338761 46.0176693,8.5493188 43.849,9.9 L41.359,7.152 C42.1861954,5.89088744 42.2149845,4.26663455 41.433,2.977 L41.707,2.703 C42.0859722,2.31062111 42.0805524,1.68691522 41.6948186,1.30118142 C41.3090848,0.915447626 40.6853789,0.91002779 40.293,1.289 L40.019,1.563 C39.4090396,1.19680127 38.7114408,1.00227518 38,1 C35.790861,1 34,2.790861 34,5 C34,5.55228475 34.4477153,6 35,6 C35.5522847,6 36,5.55228475 36,5 C36.000575,4.19190384 36.4873936,3.46355347 37.2338455,3.15399033 C37.9802974,2.8444272 38.8396968,3.01448376 39.412,3.585 C39.7927398,3.964839 40.0036209,4.48255102 39.9966516,5.02031668 C39.9896823,5.55808233 39.7654555,6.07015548 39.375,6.44 L39.366,6.446 C38.998427,6.79880421 38.5094824,6.99710239 38,7 C37.4477153,7 37,7.44771525 37,8 C37,8.55228475 37.4477153,9 38,9 C38.6592861,8.99534984 39.3069391,8.82587377 39.884,8.507 L42.344,11.222 C40.9564619,12.9276224 40.6141374,15.2560313 41.452048,17.288841 C42.2899587,19.3216507 44.1735945,20.7325334 46.36,20.965 C45.3264759,23.802029 46.5778427,26.9637386 49.273,28.325 C47.5756141,30.4810083 47.5756141,33.5189917 49.273,35.675 C47.2672,36.6930211 46.0024853,38.7506457 46,41 C43.0365386,41.003515 40.5195174,43.1700649 40.075,46.1 C39.7203468,46.0348126 39.3605918,46.001347 39,46 C37.0283538,46.0035126 35.1842648,46.9754631 34.067,48.6 C32.9632183,47.5703247 31.5094909,46.9984133 30,47 C28.490547,46.9986134 27.0368903,47.5704969 25.933,48.6 C24.8157352,46.9754631 22.9716462,46.0035126 21,46 C20.6394082,46.001347 20.2796532,46.0348126 19.925,46.1 C19.4804826,43.1700649 16.9634614,41.003515 14,41 C13.9976395,38.7505887 12.7323552,36.6930524 10.726,35.676 C12.4246387,33.5200525 12.4246387,30.4809475 10.726,28.325 C13.4218965,26.9644066 14.6738538,23.8022908 13.64,20.965 C15.8264055,20.7325334 17.7100413,19.3216507 18.547952,17.288841 C19.3858626,15.2560313 19.0435381,12.9276224 17.656,11.222 L20.116,8.507 C20.6930609,8.82587377 21.3407139,8.99534984 22,9 C23.8411801,9.01044836 25.4544752,7.76962443 25.9168886,5.98742715 C26.379302,4.20522987 25.5728038,2.33656029 23.9588071,1.45051979 C22.3448103,0.5644793 20.3352833,0.887227337 19.0799146,2.23411362 C17.8245458,3.5809999 17.6437649,5.60823533 18.641,7.156 L16.151,9.9 C13.9831745,8.55026973 11.1978499,8.7241395 9.2147093,10.3329877 C7.2315687,11.9418359 6.48719648,14.6314778 7.361,17.031 C5.1959755,17.2573182 3.32470527,18.6416696 2.47484702,20.6457384 C1.62498878,22.6498073 1.93066073,24.9573267 3.273,26.671 C1.26529229,27.6869937 -0.000301686645,29.7458592 -0.000301686645,31.996 C-0.000301686645,34.2461408 1.26529229,36.3050063 3.273,37.321 C1.85735114,39.1256014 1.59752741,41.5805176 2.60405253,43.6414773 C3.61057765,45.702437 5.70640019,47.00691 8,47 C8.00330738,50.3123376 10.6876624,52.9966926 14,53 C14.3605918,52.998653 14.7203468,52.9651874 15.075,52.9 C15.4026345,55.0950391 16.9178318,56.9286495 19.0117908,57.6640928 C21.1057498,58.3995362 23.4347472,57.9160895 25.063,56.408 C25.2690055,56.7067553 25.50126,56.9865315 25.757,57.244 C26.8800193,58.3725605 28.4078953,59.0048844 30,59 C31.5919249,59.0044641 33.1194531,58.371775 34.242,57.243 C34.5000555,56.9856425 34.7343405,56.7055046 34.942,56.406 C36.5701517,57.9111561 38.8969328,58.3930289 40.988958,57.6583159 C43.0809833,56.9236028 44.5955147,55.0926724 44.925,52.9 C45.2796532,52.9651874 45.6394082,52.998653 46,53 C49.3123376,52.9966926 51.9966926,50.3123376 52,47 C54.2922953,47.0061081 56.3866383,45.7021659 57.3927538,43.6424604 C58.3988694,41.5827549 58.1399273,39.1292907 56.726,37.325 C58.7337983,36.3093276 59.9995285,34.2505765 59.9995285,32.0005 C59.9995285,29.7504235 58.7337983,27.6916724 56.726,26.676 Z M43,15 C42.9932442,13.275349 44.0926685,11.7405575 45.7277792,11.1920323 C47.3628898,10.6435071 49.1654713,11.2047722 50.2001602,12.5845859 C51.234849,13.9643995 51.2686404,15.8520374 50.284,17.268 C49.2628272,17.5743249 48.3425156,18.1489585 47.619,18.932 C47.4148698,18.9715323 47.2078441,18.994275 47,19 C44.790861,19 43,17.209139 43,15 Z M48,23 C47.9984123,22.1308851 48.2791645,21.2847683 48.8,20.589 C48.8281334,20.5613339 48.8545178,20.5319438 48.879,20.501 C49.4304667,19.8054677 50.1990149,19.3146953 51.062,19.107 C51.0841933,19.1041475 51.106223,19.1001421 51.128,19.095 C51.4141582,19.0305754 51.7066822,18.9987063 52,19 C53.6750826,18.9981728 55.1734282,20.0415381 55.752793,21.6132382 C56.3321578,23.1849384 55.8694964,24.9511759 54.594,26.037 C53.3218806,25.8960599 52.0387001,26.1771509 50.942,26.837 C49.2077923,26.3684993 48.0023742,24.7963751 48,23 Z M22,3 C22.8991538,2.99628787 23.690251,3.59307598 23.9336112,4.45867816 C24.1769714,5.32428034 23.8127616,6.24587787 23.0434043,6.7112602 C22.274047,7.17664253 21.288698,7.07138982 20.635,6.454 L20.626,6.448 C20.0346924,5.88463073 19.8453386,5.01832526 20.1476737,4.25962695 C20.4500088,3.50092864 21.1832844,3.00228344 22,3 Z M13,11 C15.209139,11 17,12.790861 17,15 C17,17.209139 15.209139,19 13,19 C12.7922589,18.9935008 12.5853205,18.9711019 12.381,18.933 C11.6610649,18.1532967 10.745815,17.5801867 9.73,17.273 C9.25840132,16.6085864 9.00345585,15.814763 9,15 C9,12.790861 10.790861,11 13,11 Z M8,19 C9.21395124,18.994746 10.3629305,19.547849 11.116,20.5 C11.1401815,20.5302649 11.1662323,20.5589877 11.194,20.586 C11.9919178,21.642685 12.2136487,23.0263775 11.7858639,24.2794762 C11.3580792,25.5325748 10.3365101,26.4918277 9.059,26.84 C7.9629714,26.1766189 6.67795289,25.8952794 5.405,26.04 C4.12696093,24.9545706 3.66272613,23.1865659 4.24265169,21.6132803 C4.82257724,20.0399948 6.32323913,18.9962667 8,19 Z M2,32 C1.99669466,30.0669549 3.37885857,28.409285 5.281,28.065 C6.34020718,27.858737 7.4375106,28.1013751 8.311,28.735 C9.31828271,29.4465013 9.94006234,30.5837056 9.99540394,31.8156918 C10.0507455,33.0476779 9.53343233,34.236051 8.594,35.035 C7.32191619,34.894734 6.03894954,35.1757781 4.942,35.835 C3.20850841,35.3666943 2.00327591,33.7956315 2,32 Z M4,41 C4.00232124,39.7034292 4.63062801,38.4877841 5.687,37.736 C6.56089855,37.1066568 7.65486141,36.8637147 8.713,37.064 C10.6176821,37.4061542 12.0028635,39.064832 12,41 C11.9924404,41.1233163 11.9784212,41.2461516 11.958,41.368 C10.2920101,41.9800024 8.97900235,43.2930101 8.367,44.959 C8.243,44.97 8.134,45 8,45 C5.790861,45 4,43.209139 4,41 Z M10,47 C9.99651906,46.6970451 10.0301017,46.3948016 10.1,46.1 C10.4530877,44.6107455 11.6178104,43.4491204 13.108,43.1 C13.4001836,43.0306499 13.6997133,42.9970704 14,43 C16.1348542,43.0075164 17.8875453,44.6902231 17.982,46.823 C16.5006593,47.6812384 15.4618204,49.1370709 15.132,50.817 C14.7657106,50.9333 14.3842763,50.994963 14,51 C12.939134,51 11.9217184,50.5785726 11.1715729,49.8284271 C10.4214274,49.0782816 10,48.060866 10,47 Z M21,56 C18.790861,56 17,54.209139 17,52 C17.0005653,51.8832046 17.0092529,51.7665899 17.026,51.651 C17.1455697,50.1993412 18.049534,48.9293405 19.382,48.341 C19.890818,48.1131686 20.4425116,47.9968969 21,48 C22.5610847,48.0025869 23.9780289,48.9131171 24.629,50.332 C24.2150644,51.160447 23.9997121,52.0738969 24,53 C24.0021056,53.4775304 24.0605088,53.9531471 24.174,54.417 C23.4241427,55.414843 22.2481887,56.0013381 21,56 Z M30,57 C27.790861,57 26,55.209139 26,53 C26,50.790861 27.790861,49 30,49 C32.209139,49 34,50.790861 34,53 C34,55.209139 32.209139,57 30,57 Z M39,56 C37.7515705,56.0011808 36.5753789,55.414752 35.825,54.417 C36.1661828,53.0444673 36.0051489,51.5951626 35.371,50.331 C36.0222647,48.9125074 37.4391473,48.0024073 39,48 C39.5597187,47.9970746 40.1135384,48.1143862 40.624,48.344 C41.9698913,48.9463019 42.8752807,50.2402095 42.98,51.711 C42.9938673,51.8066995 43.0005527,51.9033026 43,52 C43,54.209139 41.209139,56 39,56 Z M46,51 C45.6151049,50.9945526 45.2330705,50.9329015 44.866,50.817 C44.5341955,49.1384881 43.4967843,47.6836355 42.018,46.823 C42.1124547,44.6902231 43.8651458,43.0075164 46,43 C46.3029549,42.9965191 46.6051984,43.0301017 46.9,43.1 C48.3892545,43.4530877 49.5508796,44.6178104 49.9,46.108 C49.9693501,46.4001836 50.0029296,46.6997133 50,47 C50,49.209139 48.209139,51 46,51 Z M52,45 C51.8766837,44.9924404 51.7538484,44.9784212 51.632,44.958 C51.0199976,43.2920101 49.7069899,41.9790024 48.041,41.367 C48.03,41.243 48,41.134 48,41 C47.9966947,39.0669549 49.3788586,37.409285 51.281,37.065 C52.3402087,36.858614 53.4375611,37.1012629 54.311,37.735 C55.7329855,38.7414066 56.3400845,40.5524063 55.8119974,42.2125331 C55.2839102,43.8726599 53.7420956,45.0000891 52,45 Z M55.059,35.841 C53.9633411,35.1766935 52.6780037,34.8952841 51.405,35.041 C50.4658255,34.2419893 49.9486048,33.0538044 50.0037442,31.8219657 C50.0588837,30.590127 50.680194,29.4529049 51.687,28.741 C52.5605042,28.1107774 53.6548465,27.867751 54.713,28.069 C56.5493568,28.3979225 57.9126584,29.955416 57.9955764,31.8191544 C58.0784945,33.6828928 56.8588917,35.3553002 55.059,35.846 L55.059,35.841 Z"/></g></g></svg>