<svg xmlns="http://www.w3.org/2000/svg" xmlns:xlink="http://www.w3.org/1999/xlink" viewBox="0 0 61  63" version="1.1" x="0px" y="0px"><desc>Created with Sketch.</desc><g stroke="none" stroke-width="1" fill="none" fill-rule="evenodd"><g transform="translate(0.000000, -1.000000)" fill="#000000" fill-rule="nonzero"><path d="M1.062,1.36 C0.70846224,1.78394119 0.765307629,2.41416409 1.189,2.768 C1.606,3.115 11.416,11.139 27.54,11.919 L27.785,14.127 C27.785,14.142 27.792,14.156 27.794,14.17 C26.6581128,15.111931 26.000821,16.5108735 26.000821,17.9865 C26.000821,19.4621265 26.6581128,20.861069 27.794,21.803 C24.7217962,23.6032762 22.8818833,26.9411407 23,30.5 C22.9941052,32.2028857 23.3872792,33.8834652 24.148,35.407 L18.391,34.258 C17.8038656,34.1435441 17.1962786,34.2969524 16.7338513,34.6764097 C16.2714239,35.0558671 16.0023603,35.6218183 16,36.22 L16,42.8 C16.0002062,43.3936654 16.2633592,43.9567479 16.7186495,44.3377327 C17.1739398,44.7187175 17.7745986,44.8784686 18.359,44.774 L26.859,43.225 L25.125,58.788 C25.0669237,59.3535986 25.2514709,59.9172893 25.632794,60.3390326 C26.014117,60.7607759 26.5564284,61.0009908 27.125,61 L34.885,61 C35.4542676,60.999558 35.9965668,60.7573893 36.3768703,60.3337915 C36.7571738,59.9101937 36.9396994,59.3450224 36.879,58.779 L35.143,43.225 L43.643,44.774 C44.2271536,44.8781726 44.8274462,44.7182505 45.2823505,44.3372657 C45.7372548,43.956281 46.0000416,43.3933695 46,42.8 L46,36.22 C46.0006174,35.624241 45.7337511,35.0596739 45.273,34.682 C44.8070741,34.2970919 44.1927466,34.142133 43.6,34.26 L37.848,35.407 C38.6101052,33.8838028 39.0046531,32.2032065 39,30.5 C39.1196411,26.9404976 37.2804016,23.6013106 34.208,21.8 C35.3438872,20.858069 36.001179,19.4591265 36.001179,17.9835 C36.001179,16.5078735 35.3438872,15.108931 34.208,14.167 C34.208,14.153 34.215,14.139 34.217,14.124 L34.463,11.904 C50.57,11.12 60.238,3.104 60.648,2.761 C60.9316388,2.53321086 61.0692008,2.16935852 61.0072067,1.81089568 C60.9452127,1.45243284 60.6934433,1.15591307 60.3497774,1.03661257 C60.0061115,0.91731208 59.6247682,0.99405253 59.354,1.237 C59.259,1.317 49.937,9.037 34.685,9.889 L34.719,9.589 C34.8211603,8.67553689 34.5293071,7.76181303 33.9165455,7.07670363 C33.303784,6.39159424 32.4281581,5.99999641 31.509,6 L30.491,6 C29.5723212,5.9997736 28.6970379,6.39087264 28.0843114,7.07537024 C27.4715849,7.75986784 27.1794303,8.67295325 27.281,9.586 L27.317,9.906 C18.3651335,9.50328653 9.72723835,6.48748018 2.47,1.231 C2.04552949,0.877941596 1.41524832,0.935687527 1.062,1.36 Z M37,30.5 C37.0364889,32.5916928 36.28714,34.621001 34.9,36.187 C34.6030421,36.5042398 34.544946,36.9769458 34.7562485,37.3566514 C34.967551,37.7363569 35.3998833,37.9361443 35.826,37.851 L44,36.219 L44,42.805 L34.18,41.015 C33.8688345,40.9579878 33.5490425,41.051572 33.3177045,41.267343 C33.0863665,41.483114 32.9707674,41.7956228 33.006,42.11 L34.88,59 L27.114,59 L28.994,42.11 C29.0292326,41.7956228 28.9136335,41.483114 28.6822955,41.267343 C28.4509575,41.051572 28.1311655,40.9579878 27.82,41.015 L18,42.8 L18,36.221 L26.17,37.851 C26.5961167,37.9361443 27.028449,37.7363569 27.2397515,37.3566514 C27.451054,36.9769458 27.3929579,36.5042398 27.096,36.187 C25.7103087,34.6204033 24.9624113,32.5911606 25,30.5 C25,26.364 27.691,23 31,23 C34.309,23 37,26.364 37,30.5 Z M34,18 C34,19.6568542 32.6568542,21 31,21 C29.3431458,21 28,19.6568542 28,18 C28.0021129,17.2862275 28.2620747,16.5972577 28.732,16.06 C29.3334542,16.6616179 30.1492995,16.9996171 31,16.9996171 C31.8507005,16.9996171 32.6665458,16.6616179 33.268,16.06 C33.7380039,16.5972106 33.9979773,17.286211 34,18 Z M29.574,8.41 C29.8065357,8.1478937 30.1406139,7.99852395 30.491,8 L31.509,8 C31.858851,7.99977814 32.1921876,8.14878804 32.4253381,8.40962638 C32.6584887,8.67046471 32.7693156,9.01836501 32.73,9.366 L32.23,13.905 C32.1586615,14.528705 31.6307716,14.9996576 31.003,14.9996576 C30.3752284,14.9996576 29.8473385,14.528705 29.776,13.905 L29.276,9.364 C29.2326878,9.01786757 29.3413706,8.66993685 29.574,8.41 Z"/><path d="M31,36 C31.5522847,36 32,35.5522847 32,35 C32,34.4477153 31.5522847,34 31,34 C30.2,34 29,32.6 29,30.5 C29,28.4 30.2,27 31,27 C31.8,27 33,28.4 33,30.5 C33,31.0522847 33.4477153,31.5 34,31.5 C34.5522847,31.5 35,31.0522847 35,30.5 C35,27.21 32.932,25 31,25 C29.068,25 27,27.21 27,30.5 C27,33.79 29.068,36 31,36 Z"/><path d="M32,55 L30,55 C29.4477153,55 29,55.4477153 29,56 C29,56.5522847 29.4477153,57 30,57 L32,57 C32.5522847,57 33,56.5522847 33,56 C33,55.4477153 32.5522847,55 32,55 Z"/><path d="M41,41 C41.5522847,41 42,40.5522847 42,40 L42,39 C42,38.4477153 41.5522847,38 41,38 C40.4477153,38 40,38.4477153 40,39 L40,40 C40,40.5522847 40.4477153,41 41,41 Z"/><path d="M21,38 C20.4477153,38 20,38.4477153 20,39 L20,40 C20,40.5522847 20.4477153,41 21,41 C21.5522847,41 22,40.5522847 22,40 L22,39 C22,38.4477153 21.5522847,38 21,38 Z"/></g></g> </svg>