<svg xmlns="http://www.w3.org/2000/svg" xmlns:xlink="http://www.w3.org/1999/xlink" viewBox="0 0 60 50" version="1.1" x="0px" y="0px"><title>040 - Ring </title><desc>Created with Sketch.</desc><g stroke="none" stroke-width="1" fill="none" fill-rule="evenodd"><g fill="#000000" fill-rule="nonzero"><path d="M30,0 C13.458,0 0,9.869 0,22 C0,34.131 13.458,44 30,44 C46.542,44 60,34.131 60,22 C60,9.869 46.542,0 30,0 Z M30,42 C14.561,42 2,33.028 2,22 C2,10.972 14.561,2 30,2 C45.439,2 58,10.972 58,22 C58,33.028 45.439,42 30,42 Z"/><path d="M30,4 C17.1,4 7,9.93 7,17.5 C7,25.07 17.1,31 30,31 C42.9,31 53,25.07 53,17.5 C53,9.93 42.9,4 30,4 Z M30,29 C20.309,29 12.154,25.382 9.743,20.486 C12.2,14.969 20.612,11 30,11 C39.388,11 47.8,14.969 50.257,20.486 C47.846,25.382 39.691,29 30,29 Z M50.981,17.7 C47.34,12.476 39.2,9 30,9 C20.8,9 12.66,12.476 9.019,17.7 C9.019,17.631 9,17.565 9,17.5 C9,11.159 18.421,6 30,6 C41.579,6 51,11.159 51,17.5 C51,17.569 50.983,17.635 50.981,17.7 Z"/><path d="M31.5,35.5 L31,35.5 L31,35 C31,34.4477153 30.5522847,34 30,34 C29.4477153,34 29,34.4477153 29,35 L29,35.5 L28.5,35.5 C27.9477153,35.5 27.5,35.9477153 27.5,36.5 C27.5,37.0522847 27.9477153,37.5 28.5,37.5 L29,37.5 L29,38 C29,38.5522847 29.4477153,39 30,39 C30.5522847,39 31,38.5522847 31,38 L31,37.5 L31.5,37.5 C32.0522847,37.5 32.5,37.0522847 32.5,36.5 C32.5,35.9477153 32.0522847,35.5 31.5,35.5 Z"/><path d="M43,33.5 L42.5,33.5 L42.5,33 C42.5,32.4477153 42.0522847,32 41.5,32 C40.9477153,32 40.5,32.4477153 40.5,33 L40.5,33.5 L40,33.5 C39.4477153,33.5 39,33.9477153 39,34.5 C39,35.0522847 39.4477153,35.5 40,35.5 L40.5,35.5 L40.5,36 C40.5,36.5522847 40.9477153,37 41.5,37 C42.0522847,37 42.5,36.5522847 42.5,36 L42.5,35.5 L43,35.5 C43.5522847,35.5 44,35.0522847 44,34.5 C44,33.9477153 43.5522847,33.5 43,33.5 Z"/><path d="M20,33.5 L19.5,33.5 L19.5,33 C19.5,32.4477153 19.0522847,32 18.5,32 C17.9477153,32 17.5,32.4477153 17.5,33 L17.5,33.5 L17,33.5 C16.4477153,33.5 16,33.9477153 16,34.5 C16,35.0522847 16.4477153,35.5 17,35.5 L17.5,35.5 L17.5,36 C17.5,36.5522847 17.9477153,37 18.5,37 C19.0522847,37 19.5,36.5522847 19.5,36 L19.5,35.5 L20,35.5 C20.5522847,35.5 21,35.0522847 21,34.5 C21,33.9477153 20.5522847,33.5 20,33.5 Z"/><path d="M52.5,27.5 L52.5,27 C52.5,26.4477153 52.0522847,26 51.5,26 C50.9477153,26 50.5,26.4477153 50.5,27 L50.5,27.5 L50,27.5 C49.4477153,27.5 49,27.9477153 49,28.5 C49,29.0522847 49.4477153,29.5 50,29.5 L50.5,29.5 L50.5,30 C50.5,30.5522847 50.9477153,31 51.5,31 C52.0522847,31 52.5,30.5522847 52.5,30 L52.5,29.5 L53,29.5 C53.5522847,29.5 54,29.0522847 54,28.5 C54,27.9477153 53.5522847,27.5 53,27.5 L52.5,27.5 Z"/><path d="M10,27.5 L9.5,27.5 L9.5,27 C9.5,26.4477153 9.05228475,26 8.5,26 C7.94771525,26 7.5,26.4477153 7.5,27 L7.5,27.5 L7,27.5 C6.44771525,27.5 6,27.9477153 6,28.5 C6,29.0522847 6.44771525,29.5 7,29.5 L7.5,29.5 L7.5,30 C7.5,30.5522847 7.94771525,31 8.5,31 C9.05228475,31 9.5,30.5522847 9.5,30 L9.5,29.5 L10,29.5 C10.5522847,29.5 11,29.0522847 11,28.5 C11,27.9477153 10.5522847,27.5 10,27.5 Z"/></g></g><text x="0" y="59" fill="#000000" font-size="5px" font-weight="bold" font-family="'Helvetica Neue', Helvetica, Arial-Unicode, Arial, Sans-serif">Created by Ben Davis</text><text x="0" y="64" fill="#000000" font-size="5px" font-weight="bold" font-family="'Helvetica Neue', Helvetica, Arial-Unicode, Arial, Sans-serif">from the Noun Project</text></svg>