<svg xmlns="http://www.w3.org/2000/svg" xmlns:xlink="http://www.w3.org/1999/xlink" viewBox="0 0 100 90" version="1.1" x="0px" y="0px"><desc>Created with Sketch.</desc><g stroke="none" stroke-width="1" fill="none" fill-rule="evenodd"><g fill="#000000"><path d="M50,86 L50,86 L50,86 C49.7240836,86 49.8486674,85.9654201 50.1301464,85.8471817 C50.6894603,85.6122355 51.432122,85.2326731 52.3069049,84.7274232 C54.2535063,83.6031209 56.6760366,81.9632036 59.2802757,79.9869666 C65.405903,75.3385103 71.734349,69.4783699 76.9968085,63.3551682 C90.4417238,47.7111659 94.9378973,33.2214008 87.6621801,22.2043044 L87.7524938,22.3353166 C84.6224914,17.9827154 81.2360676,15.4986618 77.6119113,14.517274 C72.1072831,13.0266719 65.8206198,14.9734586 59.4597346,19.3153483 C57.6952918,20.519743 56.0688831,21.8151853 54.6270069,23.1074134 C54.1265527,23.555927 53.6873318,23.9694735 53.314716,24.3362085 C53.1024047,24.545169 52.9666811,24.684212 52.912755,24.7415065 L50,27.8362072 L47.0872449,24.7415065 C47.0333189,24.684212 46.8975953,24.545169 46.685284,24.3362085 C46.3126682,23.9694734 45.8734473,23.5559269 45.3729931,23.1074134 C43.9311169,21.8151852 42.3047081,20.5197429 40.5402654,19.3153482 C34.1793802,14.9734585 27.8927169,13.0266717 22.3880887,14.5172738 C18.7639325,15.4986616 15.3775086,17.9827153 12.2475062,22.3353166 L12.33782,22.2043044 C5.06210266,33.2214009 9.55827616,47.7111661 23.0031915,63.3551684 C28.265651,69.47837 34.5940969,75.3385104 40.7197243,79.9869666 C43.3239634,81.9632036 45.7464936,83.6031209 47.6930951,84.7274232 C48.5678779,85.2326732 49.3105397,85.6122355 49.8698536,85.8471817 C50.1513326,85.9654201 50.2759164,86 50,86 L50,86 Z M50,90 L50,90 C43.8910525,90 -10.3054655,49.2328808 9,20 C25.9424618,-3.56029542 50,22 50,22 C50,22 74.0575382,-3.56029498 91,20 C110.305465,49.2328803 56.1089475,90 50,90 L50,90 Z"/></g></g></svg>